<svg id="Layer_1" data-name="Layer 1" xmlns="http://www.w3.org/2000/svg" viewBox="0 0 2000 1000"><defs><style>.cls-1,.cls-3{fill:#1bbeff;}.cls-2{fill:#ffce1b;}.cls-3{font-size:250px;font-family:LouisGeorgeCafe-Bold, Louis George Cafe;font-weight:700;}</style></defs><path class="cls-1" d="M204.47,486.54v87.72h-.24a32,32,0,1,1-63.94,0H140v-171A102,102,0,0,0,204.47,486.54Z"/><path class="cls-1" d="M343.21,391.48A101.93,101.93,0,0,1,241.29,493.4q-2.47,0-4.92-.12a101.25,101.25,0,0,1-31.9-6.74V435.06a57.05,57.05,0,1,0,0-87.16V296.42a102,102,0,0,1,138.74,95.06Z"/><path class="cls-1" d="M344.33,596.6A32,32,0,0,1,300,587.83l-.18-.28-.21.14-63.22-94.41q2.44.12,4.92.12A101.4,101.4,0,0,0,301,474.05l52.09,77.78-.2.14c.07.09.12.18.19.28A32,32,0,0,1,344.33,596.6Z"/><path class="cls-2" d="M204.47,210.16V347.9a57.06,57.06,0,0,0,0,87.16v51.48A102,102,0,0,1,140,403.24V210.16h.25a32,32,0,1,1,63.94,0Z"/><text class="cls-3" transform="translate(368.13 599.86)">umah <tspan class="cls-2" x="712.65" y="0">Belajar</tspan></text></svg>