<svg id="Layer_1" data-name="Layer 1" xmlns="http://www.w3.org/2000/svg" viewBox="0 0 1000 1000"><defs><style>.cls-1{fill:#1bbeff;}.cls-2{fill:#ffce1b;}</style></defs><path class="cls-1" d="M447.64,579.37V701.13h-.34a44.38,44.38,0,0,1-88.75,0h-.34V463.75A141.61,141.61,0,0,0,447.64,579.37Z"/><path class="cls-1" d="M640.21,447.43A141.46,141.46,0,0,1,498.75,588.89q-3.44,0-6.83-.16a140.65,140.65,0,0,1-44.28-9.36V507.91a79.19,79.19,0,1,0,0-121V315.48a141.54,141.54,0,0,1,192.57,132Z"/><path class="cls-1" d="M641.77,732.14A44.38,44.38,0,0,1,580.21,720c-.09-.13-.17-.26-.25-.39l-.29.2-87.75-131q3.39.16,6.83.16A140.8,140.8,0,0,0,581.67,562L654,670l-.28.19c.09.12.17.25.26.38A44.37,44.37,0,0,1,641.77,732.14Z"/><path class="cls-2" d="M447.64,195.75V386.94a79.18,79.18,0,0,0,0,121v71.46a141.61,141.61,0,0,1-89.43-115.62v-268h.34a44.38,44.38,0,0,1,88.75,0Z"/></svg>